<?xml version="1.0" encoding="UTF-8"?>
<svg width="30px" height="30px" viewBox="0 0 30 30" version="1.1" xmlns="http://www.w3.org/2000/svg" xmlns:xlink="http://www.w3.org/1999/xlink">
    <!-- Generator: Sketch 56.3 (81716) - https://sketch.com -->
    <title>pinterest</title>
    <desc>Created with Sketch.</desc>
    <g id="Web" stroke="none" stroke-width="1" fill="none" fill-rule="evenodd">
        <g id="HomePage-Index-Wireframe-Option2" transform="translate(-1215.000000, -1070.000000)" fill-rule="nonzero">
            <g id="Group-share" transform="translate(1185.000000, 1070.000000)">
                <g id="pinterest" transform="translate(30.000000, 0.000000)">
                    <rect id="Rectangle" fill="#C9353D" x="0" y="0" width="30" height="30" rx="15"></rect>
                    <path d="M10.2147717,25.962532 C4.92346858,23.7519553 1.47912035,17.4521567 3.6696137,11.0538526 C5.83648834,4.72453782 12.846124,1.40998854 19.1577271,3.7532098 C25.4872576,6.10311664 28.6178753,13.0854836 26.1640902,19.3448132 C23.6237269,25.82498 16.8132141,28.1177039 11.7068768,26.5010049 C12.0886178,25.5584107 12.5230029,24.628334 12.8412153,23.6601354 C13.1607793,22.6877406 13.3645263,21.677366 13.6041993,20.7414573 C13.8105073,20.9149976 14.0178113,21.098993 14.2349328,21.2705419 C15.3632954,22.1620698 16.6398442,22.2486266 17.9772894,21.9271503 C19.3984672,21.5855461 20.5215655,20.7799349 21.3532714,19.5957354 C22.7599365,17.5929093 23.2563563,15.3269988 22.9163749,12.942455 C22.5647976,10.4767598 21.1044924,8.69242378 18.8151134,7.79392581 C15.3657142,6.44016895 12.0956607,6.8959257 9.26312253,9.37705463 C7.08465196,11.2852871 6.35232957,14.5202496 7.40016097,17.0387182 C7.76333426,17.911683 8.33729744,18.5968117 9.20564085,19.0084721 C9.64571723,19.2170761 9.83253271,19.1320129 9.95987457,18.6724866 C9.96933628,18.6382764 9.98086108,18.6045641 9.99338184,18.5713496 C10.2372522,17.9283969 10.1803396,17.3998101 9.74631018,16.7791189 C8.95536786,15.6478351 9.09643987,14.3382456 9.47803859,13.0834921 C10.2016818,10.7040692 12.3280774,9.11645963 14.8218436,9.09341575 C15.4898548,9.08722805 16.1775008,9.14448213 16.8244543,9.30230426 C18.7487392,9.77164552 19.9912115,11.2594694 20.1157078,13.2320683 C20.2155893,14.813988 19.9683042,16.3507445 19.2803736,17.7952545 C18.939752,18.5103971 18.4902139,19.1463086 17.8211356,19.5964467 C17.1926075,20.0192734 16.5053171,20.1896844 15.7595492,19.9948782 C14.732064,19.7264597 14.1487814,18.7893419 14.4086584,17.7611154 C14.6779971,16.6953359 15.0265154,15.6494709 15.2907319,14.5826246 C15.4024228,14.1314197 15.4611139,13.6413816 15.4152993,13.1817842 C15.2903051,11.9299468 14.1072352,11.3461684 13.0012819,11.9573291 C12.2266308,12.385419 11.8536401,13.1009173 11.6806259,13.92879 C11.5024184,14.7816981 11.5887121,15.6223019 11.8663031,16.4493211 C11.9220774,16.6155358 11.9303297,16.8208682 11.8909889,16.9922748 C11.3885221,19.1827948 10.8511253,21.3656335 10.3752651,23.5618433 C10.2363985,24.2027335 10.2621514,24.8795408 10.2159811,25.540132 C10.2072308,25.6665889 10.2147717,25.7943259 10.2147717,25.962532 Z" id="Path" fill="#FFFFFF"></path>
                </g>
            </g>
        </g>
    </g>
</svg>