<?xml version="1.0" encoding="UTF-8"?>
<svg width="30px" height="30px" viewBox="0 0 30 30" version="1.1" xmlns="http://www.w3.org/2000/svg" xmlns:xlink="http://www.w3.org/1999/xlink">
    <!-- Generator: Sketch 56.3 (81716) - https://sketch.com -->
    <title>shareline</title>
    <desc>Created with Sketch.</desc>
    <g id="Web" stroke="none" stroke-width="1" fill="none" fill-rule="evenodd">
        <g id="HomePage-Index-Wireframe-Option2" transform="translate(-1185.000000, -1070.000000)">
            <g id="Group-share" transform="translate(1185.000000, 1070.000000)">
                <g id="shareline">
                    <rect id="Rectangle" stroke="#979797" x="0.5" y="0.5" width="29" height="29" rx="14.5"></rect>
                    <path d="M21.322938,13 L18.4081732,13 C18.029485,13 17.7196493,13.2557901 17.7196493,13.5684225 C17.7196493,13.8810548 18.029485,14.1368449 18.4081732,14.1368449 L20.6229116,14.1368449 L20.6229116,20.8631885 L9.37704785,20.8631885 L9.37704785,14.1368449 L11.8213078,14.1368449 C12.1999959,14.1368449 12.5098317,13.8810548 12.5098317,13.5684225 C12.5098317,13.2557901 12.1999959,13 11.8213078,13 L8.67706203,13 C8.29837387,13 8,13.2842112 8,13.5968436 L8,21.4789572 C8,21.7915896 8.29837387,22 8.67706203,22 L21.322938,22 C21.7016261,22 22,21.7915896 22,21.4789572 L22,13.5968436 C22,13.2842112 21.7016261,13 21.322938,13 Z" id="Path" fill="#979797" fill-rule="nonzero"></path>
                    <path d="M14.7629611,16 C15.0988945,16 15.3737492,15.7445351 15.3737492,15.4323003 L15.3737492,7.73996948 L17.9797667,9.89722831 C18.0917565,9.99183379 18.2444535,10.0391532 18.3869468,10.0391532 C18.5600154,10.0391532 18.7228803,9.97293273 18.8450379,9.84990887 C19.0689816,9.61337846 19.0486459,9.25382419 18.7941269,9.04567877 L15.2820951,6.14095981 C15.0581514,5.96119937 14.7323857,5.95171544 14.4982383,6.12202535 C14.3862485,6.16934479 14.2946303,6.25449974 14.2335515,6.34910523 L11.1897785,9.06461322 C10.9454633,9.28224257 10.9352955,9.64176344 11.169407,9.86884332 C11.4035544,10.0959232 11.7903629,10.1053737 12.0346782,9.88777778 L14.1520651,7.99543434 L14.1520651,15.4323003 C14.1521729,15.7445351 14.4270276,16 14.7629611,16 Z" id="Path" fill="#979797" fill-rule="nonzero"></path>
                </g>
            </g>
        </g>
    </g>
</svg>