<?xml version="1.0" encoding="UTF-8"?>
<svg width="30px" height="30px" viewBox="0 0 30 30" version="1.1" xmlns="http://www.w3.org/2000/svg" xmlns:xlink="http://www.w3.org/1999/xlink">
    <!-- Generator: Sketch 56.3 (81716) - https://sketch.com -->
    <title>twitter</title>
    <desc>Created with Sketch.</desc>
    <g id="Web" stroke="none" stroke-width="1" fill="none" fill-rule="evenodd">
        <g id="HomePage-Index-Wireframe-Option2" transform="translate(-1245.000000, -1070.000000)" fill-rule="nonzero">
            <g id="Group-share" transform="translate(1185.000000, 1070.000000)">
                <g id="twitter" transform="translate(60.000000, 0.000000)">
                    <rect id="Rectangle" fill="#50ABF1" x="0" y="0" width="30" height="30" rx="14.9911513"></rect>
                    <path d="M4.00125,21.9066447 C5.99664474,23.1721711 8.36361842,23.9045395 10.9009211,23.9045395 C18.0291447,23.9045395 23.8075,18.1255263 23.8075,10.9979605 C23.8075,10.82 23.80375,10.6433553 23.7969079,10.4672368 C24.0547368,10.2643421 25.6493421,8.98625 26.0401974,8.16460526 C26.0401974,8.16460526 24.7452632,8.70276316 23.4778947,8.82953947 C23.4753947,8.82953947 23.4723026,8.83013158 23.4698026,8.83013158 C23.4698026,8.83013158 23.4723026,8.82888158 23.4766447,8.82578947 C23.5934211,8.74776316 25.2260526,7.63638158 25.4471053,6.31217105 C25.4471053,6.31217105 24.5311842,6.80105263 23.24875,7.22875 C23.0364474,7.29927632 22.8142105,7.36861842 22.5850658,7.43289474 C21.7584211,6.55065789 20.5834211,6 19.2791447,6 C16.7773684,6 14.7501316,8.02664474 14.7501316,10.5265132 C14.7501316,10.8792763 14.7907237,11.2226316 14.8675,11.5523026 C14.5178947,11.5379605 9.19401316,11.2394737 5.57217105,6.85342105 C5.57217105,6.85342105 3.40756579,9.80848684 6.86210526,12.8471711 C6.86210526,12.8471711 5.81197368,12.8053289 4.90598684,12.2640132 C4.90598684,12.2640132 4.57322368,15.8440132 8.48539474,16.7593421 C8.48539474,16.7593421 7.71559211,17.0509211 6.4875,16.8430263 C6.4875,16.8430263 7.17427632,19.7356579 10.6500658,20.0059868 C10.6500658,20.0059868 7.90157895,22.4888816 4,21.9063158 L4.00125,21.9066447 Z" id="Path" fill="#FFFFFF"></path>
                </g>
            </g>
        </g>
    </g>
</svg>